<svg width="24" height="24" viewBox="0 0 24 24" fill="none" xmlns="http://www.w3.org/2000/svg">
<g id="heroicons-outline/dock" clip-path="url(#clip0_219_1589)">
<path id="Union" fill-rule="evenodd" clip-rule="evenodd" d="M5 4.39998C4.31044 4.39998 3.64912 4.6739 3.16152 5.1615C2.67393 5.64909 2.4 6.31041 2.4 6.99998V17C2.4 17.6895 2.67393 18.3509 3.16152 18.8385C3.64912 19.3261 4.31044 19.6 5 19.6H19C19.6896 19.6 20.3509 19.3261 20.8385 18.8385C21.3261 18.3509 21.6 17.6895 21.6 17V13C21.6 12.6686 21.3314 12.4 21 12.4C20.6686 12.4 20.4 12.6686 20.4 13V17C20.4 17.3713 20.2525 17.7274 19.9899 17.9899C19.7274 18.2525 19.3713 18.4 19 18.4H5C4.6287 18.4 4.2726 18.2525 4.01005 17.9899C3.7475 17.7274 3.6 17.3713 3.6 17V6.99998C3.6 6.62867 3.7475 6.27258 4.01005 6.01003C4.2726 5.74748 4.6287 5.59998 5 5.59998H11C11.3314 5.59998 11.6 5.33135 11.6 4.99998C11.6 4.66861 11.3314 4.39998 11 4.39998H5ZM15 4.39998C14.5757 4.39998 14.1687 4.56855 13.8686 4.86861C13.5686 5.16866 13.4 5.57563 13.4 5.99998V8.99998C13.4 9.42432 13.5686 9.83129 13.8686 10.1313C14.1687 10.4314 14.5757 10.6 15 10.6H20C20.4244 10.6 20.8313 10.4314 21.1314 10.1313C21.4314 9.83129 21.6 9.42432 21.6 8.99998V5.99998C21.6 5.57563 21.4314 5.16867 21.1314 4.86861C20.8313 4.56855 20.4244 4.39998 20 4.39998H15ZM14.7172 5.71713C14.7922 5.64212 14.8939 5.59998 15 5.59998H20C20.1061 5.59998 20.2078 5.64212 20.2829 5.71713C20.3579 5.79215 20.4 5.89389 20.4 5.99998V8.99998C20.4 9.10606 20.3579 9.20781 20.2829 9.28282C20.2078 9.35783 20.1061 9.39998 20 9.39998H15C14.8939 9.39998 14.7922 9.35783 14.7172 9.28282C14.6422 9.2078 14.6 9.10606 14.6 8.99998V5.99998C14.6 5.89389 14.6422 5.79215 14.7172 5.71713Z" fill="#373F4E"/>
</g>
<defs>
<clipPath id="clip0_219_1589">
<rect width="24" height="24" fill="white"/>
</clipPath>
</defs>
</svg>
