<svg width="24" height="24" viewBox="0 0 24 24" fill="none" xmlns="http://www.w3.org/2000/svg">
<g id="heroicons-outline/history">
<path id="Vector" d="M11.9999 4.28568C13.551 4.28564 15.0661 4.75316 16.3474 5.62725C17.6288 6.50134 18.6169 7.74139 19.1827 9.18557C19.7486 10.6297 19.866 12.211 19.5196 13.7229C19.1732 15.2348 18.3791 16.6072 17.2409 17.6609C16.1027 18.7146 14.6732 19.4008 13.1391 19.6298C11.6051 19.8588 10.0376 19.62 8.64123 18.9447C7.24489 18.2693 6.08458 17.1887 5.31171 15.8439C4.53883 14.4991 4.18931 12.9525 4.30874 11.406C4.31516 11.3217 4.30491 11.2371 4.2786 11.1568C4.25229 11.0765 4.21041 11.0021 4.15538 10.938C4.10034 10.8739 4.03321 10.8213 3.95782 10.7831C3.88244 10.7449 3.80028 10.722 3.71602 10.7156C3.63177 10.7092 3.54708 10.7194 3.46678 10.7457C3.38649 10.772 3.31216 10.8139 3.24805 10.8689C3.18394 10.924 3.1313 10.9911 3.09313 11.0665C3.05496 11.1419 3.03201 11.224 3.02559 11.3083C3.00845 11.538 2.99988 11.7686 2.99988 12C2.99988 14.0861 3.7246 16.1075 5.0501 17.7184C6.37559 19.3293 8.21954 20.4298 10.2666 20.8315C12.3137 21.2333 14.4368 20.9114 16.2729 19.921C18.1089 18.9306 19.5438 17.3331 20.3323 15.4017C21.1208 13.4703 21.2139 11.3249 20.5956 9.33252C19.9773 7.3401 18.686 5.62436 16.9426 4.47867C15.1993 3.33298 13.112 2.8285 11.0378 3.05151C8.96362 3.27452 7.03132 4.21116 5.57132 5.70126V3.64283C5.57132 3.47233 5.50359 3.30881 5.38303 3.18825C5.26247 3.0677 5.09895 2.99997 4.92846 2.99997C4.75796 2.99997 4.59445 3.0677 4.47389 3.18825C4.35333 3.30881 4.2856 3.47233 4.2856 3.64283V7.49998C4.2856 7.67048 4.35333 7.83399 4.47389 7.95455C4.59445 8.07511 4.75796 8.14284 4.92846 8.14284H8.78562C8.95611 8.14284 9.11963 8.07511 9.24019 7.95455C9.36075 7.83399 9.42848 7.67048 9.42848 7.49998C9.42848 7.32949 9.36075 7.16597 9.24019 7.04541C9.11963 6.92485 8.95611 6.85712 8.78562 6.85712H6.25018C6.97271 6.04688 7.85863 5.39882 8.84965 4.95561C9.84066 4.5124 10.9143 4.28409 11.9999 4.28568ZM11.9999 7.49998C11.9999 7.32949 11.9322 7.16597 11.8116 7.04541C11.6911 6.92485 11.5276 6.85712 11.3571 6.85712C11.1866 6.85712 11.023 6.92485 10.9025 7.04541C10.7819 7.16597 10.7142 7.32949 10.7142 7.49998V12.6429C10.7142 12.8134 10.7819 12.9769 10.9025 13.0974C11.023 13.218 11.1866 13.2857 11.3571 13.2857H15.2142C15.3847 13.2857 15.5482 13.218 15.6688 13.0974C15.7893 12.9769 15.8571 12.8134 15.8571 12.6429C15.8571 12.4724 15.7893 12.3089 15.6688 12.1883C15.5482 12.0677 15.3847 12 15.2142 12H11.9999V7.49998Z" fill="#373F4E"/>
</g>
</svg>
