<svg width="24" height="24" viewBox="0 0 24 24" fill="none" xmlns="http://www.w3.org/2000/svg">
<g id="heroicons-outline/mic-slash" clip-path="url(#clip0_401_28)">
<g id="Subtract">
<mask id="path-1-inside-1_401_28" fill="white">
<path fill-rule="evenodd" clip-rule="evenodd" d="M8.25 4.5C8.25 2.42893 9.92893 0.75 12 0.75C14.0711 0.75 15.75 2.42893 15.75 4.5V12.75C15.75 13.1239 15.6953 13.4849 15.5934 13.8257L14.25 12.4822V4.5C14.25 3.25736 13.2426 2.25 12 2.25C10.7574 2.25 9.75 3.25736 9.75 4.5V6.5625V7.98223L8.25 6.48223V4.5ZM8.25 10.0178V10.6875V12.75C8.25 14.8211 9.92893 16.5 12 16.5C12.7754 16.5 13.4958 16.2647 14.0938 15.8615L12.9989 14.7667C12.6979 14.916 12.3588 15 12 15C10.7574 15 9.75 13.9926 9.75 12.75V11.5178L8.25 10.0178ZM15.1686 16.9364C14.288 17.6039 13.1902 18 12 18C9.1005 18 6.75 15.6495 6.75 12.75V11.25C6.75 10.8358 6.41421 10.5 6 10.5C5.58579 10.5 5.25 10.8358 5.25 11.25V12.75C5.25 16.2244 7.87504 19.0857 11.25 19.4588V21.75H8.25C7.83579 21.75 7.5 22.0858 7.5 22.5C7.5 22.9142 7.83579 23.25 8.25 23.25H12H15.75C16.1642 23.25 16.5 22.9142 16.5 22.5C16.5 22.0858 16.1642 21.75 15.75 21.75H12.75V19.4588C14.0625 19.3137 15.2617 18.7923 16.237 18.0048L15.1686 16.9364ZM17.8637 16.0959C18.4277 15.1097 18.75 13.9675 18.75 12.75V11.25C18.75 10.8358 18.4142 10.5 18 10.5C17.5858 10.5 17.25 10.8358 17.25 11.25V12.75C17.25 13.5491 17.0715 14.3064 16.7522 14.9844L17.8637 16.0959Z"/>
</mask>
<path d="M15.5934 13.8257L14.8863 14.5328C15.1353 14.7818 15.497 14.8815 15.8384 14.7952C16.1798 14.709 16.4507 14.4495 16.5516 14.1121L15.5934 13.8257ZM14.25 12.4822H13.25C13.25 12.7474 13.3554 13.0018 13.5429 13.1893L14.25 12.4822ZM9.75 7.98223L9.04289 8.68934C9.32889 8.97534 9.75901 9.06089 10.1327 8.90611C10.5064 8.75133 10.75 8.3867 10.75 7.98223H9.75ZM8.25 6.48223H7.25C7.25 6.74745 7.35536 7.0018 7.54289 7.18934L8.25 6.48223ZM8.25 10.0178L8.95711 9.31066C8.67111 9.02466 8.24099 8.93911 7.86732 9.09389C7.49364 9.24867 7.25 9.61331 7.25 10.0178H8.25ZM14.0938 15.8615L14.6528 16.6907C14.9004 16.5237 15.0605 16.2548 15.0891 15.9575C15.1178 15.6602 15.0121 15.3656 14.8009 15.1544L14.0938 15.8615ZM12.9989 14.7667L13.706 14.0596C13.4024 13.756 12.9389 13.6801 12.5544 13.8709L12.9989 14.7667ZM9.75 11.5178H10.75C10.75 11.2526 10.6446 10.9982 10.4571 10.8107L9.75 11.5178ZM15.1686 16.9364L15.8757 16.2293C15.5224 15.876 14.9626 15.8376 14.5645 16.1395L15.1686 16.9364ZM11.25 19.4588H12.25C12.25 18.949 11.8666 18.5209 11.3599 18.4649L11.25 19.4588ZM11.25 21.75V22.75C11.8023 22.75 12.25 22.3023 12.25 21.75H11.25ZM12.75 21.75H11.75C11.75 22.3023 12.1977 22.75 12.75 22.75V21.75ZM12.75 19.4588L12.6401 18.4649C12.1334 18.5209 11.75 18.949 11.75 19.4588H12.75ZM16.237 18.0048L16.8652 18.7829C17.0859 18.6047 17.2206 18.3412 17.2356 18.0579C17.2507 17.7746 17.1447 17.4983 16.9442 17.2977L16.237 18.0048ZM17.8637 16.0959L17.1566 16.803C17.3769 17.0234 17.6874 17.1284 17.9963 17.0871C18.3051 17.0458 18.5771 16.8629 18.7318 16.5923L17.8637 16.0959ZM16.7522 14.9844L15.8475 14.5583C15.6678 14.9399 15.7468 15.3932 16.0451 15.6915L16.7522 14.9844ZM12 -0.25C9.37665 -0.25 7.25 1.87665 7.25 4.5H9.25C9.25 2.98122 10.4812 1.75 12 1.75V-0.25ZM16.75 4.5C16.75 1.87665 14.6234 -0.25 12 -0.25V1.75C13.5188 1.75 14.75 2.98122 14.75 4.5H16.75ZM16.75 12.75V4.5H14.75V12.75H16.75ZM16.5516 14.1121C16.6809 13.6794 16.75 13.2219 16.75 12.75H14.75C14.75 13.0258 14.7097 13.2905 14.6353 13.5393L16.5516 14.1121ZM13.5429 13.1893L14.8863 14.5328L16.3005 13.1186L14.9571 11.7751L13.5429 13.1893ZM13.25 4.5V12.4822H15.25V4.5H13.25ZM12 3.25C12.6904 3.25 13.25 3.80964 13.25 4.5H15.25C15.25 2.70507 13.7949 1.25 12 1.25V3.25ZM10.75 4.5C10.75 3.80964 11.3096 3.25 12 3.25V1.25C10.2051 1.25 8.75 2.70507 8.75 4.5H10.75ZM10.75 6.5625V4.5H8.75V6.5625H10.75ZM10.75 7.98223V6.5625H8.75V7.98223H10.75ZM7.54289 7.18934L9.04289 8.68934L10.4571 7.27513L8.95711 5.77513L7.54289 7.18934ZM7.25 4.5V6.48223H9.25V4.5H7.25ZM7.25 10.0178V10.6875H9.25V10.0178H7.25ZM7.25 10.6875V12.75H9.25V10.6875H7.25ZM7.25 12.75C7.25 15.3734 9.37665 17.5 12 17.5V15.5C10.4812 15.5 9.25 14.2688 9.25 12.75H7.25ZM12 17.5C12.9808 17.5 13.8949 17.2017 14.6528 16.6907L13.5347 15.0324C13.0968 15.3277 12.57 15.5 12 15.5V17.5ZM14.8009 15.1544L13.706 14.0596L12.2918 15.4738L13.3866 16.5686L14.8009 15.1544ZM12.5544 13.8709C12.3885 13.9532 12.2011 14 12 14V16C12.5164 16 13.0074 15.8788 13.4434 15.6624L12.5544 13.8709ZM12 14C11.3096 14 10.75 13.4404 10.75 12.75H8.75C8.75 14.5449 10.2051 16 12 16V14ZM10.75 12.75V11.5178H8.75V12.75H10.75ZM10.4571 10.8107L8.95711 9.31066L7.54289 10.7249L9.04289 12.2249L10.4571 10.8107ZM12 19C13.4158 19 14.7243 18.528 15.7727 17.7333L14.5645 16.1395C13.8517 16.6798 12.9647 17 12 17V19ZM5.75 12.75C5.75 16.2018 8.54822 19 12 19V17C9.65279 17 7.75 15.0972 7.75 12.75H5.75ZM5.75 11.25V12.75H7.75V11.25H5.75ZM6 11.5C5.86193 11.5 5.75 11.3881 5.75 11.25H7.75C7.75 10.2835 6.9665 9.5 6 9.5V11.5ZM6.25 11.25C6.25 11.3881 6.13807 11.5 6 11.5V9.5C5.0335 9.5 4.25 10.2835 4.25 11.25H6.25ZM6.25 12.75V11.25H4.25V12.75H6.25ZM11.3599 18.4649C8.48597 18.1472 6.25 15.709 6.25 12.75H4.25C4.25 16.7398 7.26411 20.0243 11.1401 20.4527L11.3599 18.4649ZM12.25 21.75V19.4588H10.25V21.75H12.25ZM8.25 22.75H11.25V20.75H8.25V22.75ZM8.5 22.5C8.5 22.6381 8.38807 22.75 8.25 22.75V20.75C7.2835 20.75 6.5 21.5335 6.5 22.5H8.5ZM8.25 22.25C8.38807 22.25 8.5 22.3619 8.5 22.5H6.5C6.5 23.4665 7.2835 24.25 8.25 24.25V22.25ZM12 22.25H8.25V24.25H12V22.25ZM15.75 22.25H12V24.25H15.75V22.25ZM15.5 22.5C15.5 22.3619 15.6119 22.25 15.75 22.25V24.25C16.7165 24.25 17.5 23.4665 17.5 22.5H15.5ZM15.75 22.75C15.6119 22.75 15.5 22.6381 15.5 22.5H17.5C17.5 21.5335 16.7165 20.75 15.75 20.75V22.75ZM12.75 22.75H15.75V20.75H12.75V22.75ZM11.75 19.4588V21.75H13.75V19.4588H11.75ZM15.6089 17.2267C14.7774 17.898 13.7569 18.3414 12.6401 18.4649L12.8599 20.4527C14.3681 20.286 15.7459 19.6866 16.8652 18.7829L15.6089 17.2267ZM16.9442 17.2977L15.8757 16.2293L14.4615 17.6435L15.5299 18.7119L16.9442 17.2977ZM17.75 12.75C17.75 13.7888 17.4754 14.7604 16.9956 15.5995L18.7318 16.5923C19.3799 15.4589 19.75 14.1462 19.75 12.75H17.75ZM17.75 11.25V12.75H19.75V11.25H17.75ZM18 11.5C17.8619 11.5 17.75 11.3881 17.75 11.25H19.75C19.75 10.2835 18.9665 9.5 18 9.5V11.5ZM18.25 11.25C18.25 11.3881 18.1381 11.5 18 11.5V9.5C17.0335 9.5 16.25 10.2835 16.25 11.25H18.25ZM18.25 12.75V11.25H16.25V12.75H18.25ZM17.6568 15.4105C18.0376 14.602 18.25 13.6994 18.25 12.75H16.25C16.25 13.3987 16.1053 14.0108 15.8475 14.5583L17.6568 15.4105ZM16.0451 15.6915L17.1566 16.803L18.5708 15.3888L17.4593 14.2773L16.0451 15.6915Z" fill="#373F4E" mask="url(#path-1-inside-1_401_28)"/>
</g>
<path id="Vector (Stroke)" d="M2.82324 2.82324C2.92087 2.72561 3.07913 2.72561 3.17676 2.82324L21.1768 20.8232C21.2744 20.9209 21.2744 21.0791 21.1768 21.1768C21.0791 21.2744 20.9209 21.2744 20.8232 21.1768L2.82324 3.17676C2.72561 3.07913 2.72561 2.92087 2.82324 2.82324Z" stroke="#373F4E" stroke-linecap="round" stroke-linejoin="round"/>
</g>
<defs>
<clipPath id="clip0_401_28">
<rect width="24" height="24" fill="white"/>
</clipPath>
</defs>
</svg>
