<svg width="24" height="23" viewBox="0 0 24 23" fill="none" xmlns="http://www.w3.org/2000/svg">
<g id="heroicons-outline/ms-project">
<path id="Vector" d="M7.59077 9.26237L6.93555 9.26629V11.2171H7.55599C8.0004 11.197 8.33402 10.7052 8.31255 10.1946C8.29323 9.61872 7.99481 9.27674 7.59077 9.26237Z" fill="#373F4E"/>
<path id="Vector_2" d="M21.2655 3.7764H13.3955V1.84L1.91998 3.77161V19.2275L13.3955 21.16V19.0206H21.2655C21.7163 19.0206 22.08 18.6599 22.08 18.2125V4.58407C22.08 4.13711 21.7167 3.77597 21.2655 3.77597V3.7764ZM9.65903 10.2874C9.56371 11.3996 8.88573 12.3602 7.86596 12.4124H6.93594V14.71L5.74314 14.6377V8.16412L7.95184 8.03953C8.66675 8.01601 8.99994 8.26214 9.3297 8.74047C9.61738 9.15868 9.70326 9.76073 9.6586 10.2874H9.65903ZM21.4218 18.3432H13.3955V14.9047L14.9326 16.4643C15.037 16.5701 15.2061 16.5701 15.3105 16.4643L17.7223 14.0173L15.3105 11.5704C15.2061 11.4645 15.037 11.4645 14.9326 11.5704L13.3955 13.1299V7.18874H17.7476V10.2883H16.3156C16.2323 10.2883 16.1538 10.3959 16.2418 10.4939L18.3053 12.6015L20.3363 10.4891C20.3998 10.4229 20.3681 10.2883 20.2577 10.2883H18.8021V6.43422C18.7858 6.30265 18.6836 6.19897 18.554 6.18242H13.3959V4.44598H21.4222V18.3436L21.4218 18.3432Z" fill="#373F4E"/>
</g>
</svg>
