<svg width="24" height="24" viewBox="0 0 24 24" fill="none" xmlns="http://www.w3.org/2000/svg">
<g id="heroicons-outline/open-apps">
<g id="Union">
<mask id="path-1-inside-1_186_11" fill="white">
<path fill-rule="evenodd" clip-rule="evenodd" d="M16.0597 3.42839C15.5074 3.42839 15.0597 3.87611 15.0597 4.42839C15.0597 4.98068 15.5074 5.42839 16.0597 5.42839L19.9071 5.42839C20.4594 5.42839 20.9071 4.98068 20.9071 4.42839C20.9071 3.87611 20.4594 3.42839 19.9071 3.42839H16.0597ZM17.7426 8.74468C17.1903 8.74468 16.7426 9.19239 16.7426 9.74468C16.7426 10.297 17.1903 10.7447 17.7426 10.7447H19.8741C20.4264 10.7447 20.8741 10.297 20.8741 9.74468C20.8741 9.19239 20.4264 8.74468 19.8741 8.74468H17.7426ZM16.1255 14.6966C15.5732 14.6966 15.1255 15.1443 15.1255 15.6966C15.1255 16.2489 15.5732 16.6966 16.1255 16.6966H19.9399C20.4922 16.6966 20.9399 16.2489 20.9399 15.6966C20.9399 15.1443 20.4922 14.6966 19.9399 14.6966H16.1255ZM3.63647 20.5716L20.3634 20.5716C20.9157 20.5716 21.3634 20.1239 21.3634 19.5716C21.3634 19.0193 20.9157 18.5716 20.3634 18.5716L3.63647 18.5716C3.08419 18.5716 2.63647 19.0193 2.63647 19.5716C2.63647 20.1239 3.08419 20.5716 3.63647 20.5716ZM9.67174 7.19788C9.67174 6.82615 9.37039 6.5248 8.99866 6.5248C8.62693 6.5248 8.32559 6.82615 8.32559 7.19788V10.7779C8.32559 11.1496 8.62693 11.451 8.99866 11.451H12.1512C12.5229 11.451 12.8242 11.1496 12.8242 10.7779C12.8242 10.4061 12.5229 10.1048 12.1512 10.1048H9.67174V7.19788ZM13.9575 10.4029C13.9575 13.1416 11.7374 15.3617 8.99866 15.3617C6.25997 15.3617 4.03982 13.1416 4.03982 10.4029C4.03982 7.66418 6.25997 5.44403 8.99866 5.44403C11.7374 5.44403 13.9575 7.66418 13.9575 10.4029ZM15.3037 10.4029C15.3037 13.885 12.4808 16.7079 8.99866 16.7079C5.51651 16.7079 2.69366 13.885 2.69366 10.4029C2.69366 6.92072 5.51651 4.09788 8.99866 4.09788C12.4808 4.09788 15.3037 6.92072 15.3037 10.4029Z"/>
</mask>
<path d="M16.0597 5.42839V3.42839V3.42839V5.42839ZM19.9071 5.42839V7.42839V7.42839V5.42839ZM20.3634 20.5716V18.5716V18.5716V20.5716ZM3.63647 20.5716V22.5716H3.63647L3.63647 20.5716ZM20.3634 18.5716V16.5716V16.5716V18.5716ZM3.63647 18.5716V20.5716H3.63647L3.63647 18.5716ZM9.67174 10.1048H7.67174V12.1048H9.67174V10.1048ZM17.0597 4.42839C17.0597 4.98068 16.612 5.42839 16.0597 5.42839V1.42839C14.4029 1.42839 13.0597 2.77154 13.0597 4.42839H17.0597ZM16.0597 3.42839C16.612 3.42839 17.0597 3.87611 17.0597 4.42839H13.0597C13.0597 6.08524 14.4029 7.42839 16.0597 7.42839V3.42839ZM19.9071 3.42839L16.0597 3.42839V7.42839L19.9071 7.42839V3.42839ZM18.9071 4.42839C18.9071 3.87611 19.3548 3.42839 19.9071 3.42839V7.42839C21.5639 7.42839 22.9071 6.08525 22.9071 4.42839H18.9071ZM19.9071 5.42839C19.3548 5.42839 18.9071 4.98068 18.9071 4.42839H22.9071C22.9071 2.77154 21.5639 1.42839 19.9071 1.42839V5.42839ZM16.0597 5.42839H19.9071V1.42839H16.0597V5.42839ZM18.7426 9.74468C18.7426 10.297 18.2948 10.7447 17.7426 10.7447V6.74468C16.0857 6.74468 14.7426 8.08782 14.7426 9.74468H18.7426ZM17.7426 8.74468C18.2948 8.74468 18.7426 9.19239 18.7426 9.74468H14.7426C14.7426 11.4015 16.0857 12.7447 17.7426 12.7447V8.74468ZM19.8741 8.74468H17.7426V12.7447H19.8741V8.74468ZM18.8741 9.74468C18.8741 9.19239 19.3219 8.74468 19.8741 8.74468V12.7447C21.531 12.7447 22.8741 11.4015 22.8741 9.74468H18.8741ZM19.8741 10.7447C19.3219 10.7447 18.8741 10.297 18.8741 9.74468H22.8741C22.8741 8.08782 21.531 6.74468 19.8741 6.74468V10.7447ZM17.7426 10.7447H19.8741V6.74468H17.7426V10.7447ZM17.1255 15.6966C17.1255 16.2489 16.6778 16.6966 16.1255 16.6966V12.6966C14.4686 12.6966 13.1255 14.0397 13.1255 15.6966H17.1255ZM16.1255 14.6966C16.6778 14.6966 17.1255 15.1443 17.1255 15.6966H13.1255C13.1255 17.3535 14.4686 18.6966 16.1255 18.6966V14.6966ZM19.9399 14.6966H16.1255V18.6966H19.9399V14.6966ZM18.9399 15.6966C18.9399 15.1443 19.3877 14.6966 19.9399 14.6966V18.6966C21.5968 18.6966 22.9399 17.3535 22.9399 15.6966H18.9399ZM19.9399 16.6966C19.3877 16.6966 18.9399 16.2489 18.9399 15.6966H22.9399C22.9399 14.0397 21.5968 12.6966 19.9399 12.6966V16.6966ZM16.1255 16.6966H19.9399V12.6966H16.1255V16.6966ZM20.3634 18.5716L3.63647 18.5716L3.63647 22.5716L20.3634 22.5716V18.5716ZM19.3634 19.5716C19.3634 19.0193 19.8111 18.5716 20.3634 18.5716V22.5716C22.0203 22.5716 23.3634 21.2285 23.3634 19.5716H19.3634ZM20.3634 20.5716C19.8111 20.5716 19.3634 20.1239 19.3634 19.5716H23.3634C23.3634 17.9147 22.0203 16.5716 20.3634 16.5716V20.5716ZM3.63647 20.5716L20.3634 20.5716V16.5716L3.63647 16.5716L3.63647 20.5716ZM4.63647 19.5716C4.63647 20.1239 4.18876 20.5716 3.63647 20.5716V16.5716C1.97962 16.5716 0.636475 17.9147 0.636475 19.5716H4.63647ZM3.63647 18.5716C4.18876 18.5716 4.63647 19.0193 4.63647 19.5716H0.636475C0.636475 21.2285 1.97962 22.5716 3.63647 22.5716V18.5716ZM8.99866 8.5248C8.26583 8.5248 7.67174 7.93072 7.67174 7.19788H11.6717C11.6717 5.72158 10.475 4.5248 8.99866 4.5248V8.5248ZM10.3256 7.19788C10.3256 7.93072 9.7315 8.5248 8.99866 8.5248V4.5248C7.52237 4.5248 6.32559 5.72158 6.32559 7.19788H10.3256ZM10.3256 10.7779V7.19788H6.32559V10.7779H10.3256ZM8.99866 9.45096C9.7315 9.45096 10.3256 10.045 10.3256 10.7779H6.32559C6.32559 12.2542 7.52236 13.451 8.99866 13.451V9.45096ZM12.1512 9.45096H8.99866V13.451H12.1512V9.45096ZM10.8242 10.7779C10.8242 10.045 11.4183 9.45096 12.1512 9.45096V13.451C13.6275 13.451 14.8242 12.2542 14.8242 10.7779H10.8242ZM12.1512 12.1048C11.4183 12.1048 10.8242 11.5107 10.8242 10.7779H14.8242C14.8242 9.30158 13.6275 8.1048 12.1512 8.1048V12.1048ZM9.67174 12.1048H12.1512V8.1048H9.67174V12.1048ZM7.67174 7.19788V10.1048H11.6717V7.19788H7.67174ZM8.99866 17.3617C12.8419 17.3617 15.9575 14.2461 15.9575 10.4029H11.9575C11.9575 12.037 10.6328 13.3617 8.99866 13.3617V17.3617ZM2.03982 10.4029C2.03982 14.2461 5.1554 17.3617 8.99866 17.3617V13.3617C7.36454 13.3617 6.03982 12.037 6.03982 10.4029H2.03982ZM8.99866 3.44403C5.1554 3.44403 2.03982 6.55961 2.03982 10.4029H6.03982C6.03982 8.76875 7.36454 7.44403 8.99866 7.44403V3.44403ZM15.9575 10.4029C15.9575 6.55961 12.8419 3.44403 8.99866 3.44403V7.44403C10.6328 7.44403 11.9575 8.76875 11.9575 10.4029H15.9575ZM8.99866 18.7079C13.5854 18.7079 17.3037 14.9896 17.3037 10.4029H13.3037C13.3037 12.7805 11.3763 14.7079 8.99866 14.7079V18.7079ZM0.693665 10.4029C0.693665 14.9896 4.41194 18.7079 8.99866 18.7079V14.7079C6.62108 14.7079 4.69366 12.7805 4.69366 10.4029H0.693665ZM8.99866 2.09788C4.41194 2.09788 0.693665 5.81615 0.693665 10.4029H4.69366C4.69366 8.02529 6.62108 6.09788 8.99866 6.09788V2.09788ZM17.3037 10.4029C17.3037 5.81615 13.5854 2.09788 8.99866 2.09788V6.09788C11.3763 6.09788 13.3037 8.02529 13.3037 10.4029H17.3037Z" fill="#373F4E" mask="url(#path-1-inside-1_186_11)"/>
</g>
</g>
</svg>
