<svg width="24" height="24" viewBox="0 0 24 24" fill="none" xmlns="http://www.w3.org/2000/svg">
<g id="heroicons-outline/orientation">
<g id="Group 3">
<path id="Rectangle 7307 (Stroke)" d="M3.95105 12.6721H18.9315C19.3817 12.6721 19.6317 12.9792 19.6317 13.2248V19.7834C19.6314 20.0289 19.3814 20.3351 18.9315 20.3352H3.95105C3.50113 20.3352 3.25116 20.0289 3.25085 19.7834V13.2248C3.25085 13.0099 3.44225 12.7478 3.79187 12.6858L3.95105 12.6721Z" stroke="#373F4E"/>
<path id="Rectangle 7307 (Stroke)_2" d="M12.0122 11.2522L12.0122 4.36449C12.0122 3.70175 11.5409 3.16449 10.9596 3.16449L4.4013 3.16449C3.82 3.16449 3.34875 3.70174 3.34875 4.36449L3.34875 11.2764" stroke="#373F4E" stroke-width="0.8" stroke-linecap="round" stroke-linejoin="round" stroke-dasharray="2 2"/>
<path id="Vector" d="M15.4906 7.06816L13.8784 5.38652L13.879 5.38595M19.1889 11.2741C20.2905 9.45582 19.7095 7.08874 17.8911 5.98712C17.2913 5.62374 16.6318 5.44344 15.9777 5.43025L13.879 5.38595M15.5601 3.7744L13.879 5.38595" stroke="#373F4E" stroke-width="0.7" stroke-linecap="round" stroke-linejoin="round"/>
</g>
</g>
</svg>
