<svg width="24" height="24" viewBox="0 0 24 24" fill="none" xmlns="http://www.w3.org/2000/svg">
<g id="heroicons-outline/pin">
<g id="bi:pin-angle">
<path id="Vector" d="M3.22656 20.7895L9.38795 14.6281M14.6678 3.00217L21.2406 9.57491M20.0016 8.52207L14.9496 13.4686C14.9178 13.4997 14.9097 13.5473 14.9286 13.5875C15.1345 14.027 16.1726 16.5725 13.8603 18.9567C13.8218 18.9963 13.7573 18.9974 13.7182 18.9584L5.05767 10.2978C5.01862 10.2588 5.01973 10.1943 5.05938 10.1558C7.44656 7.84055 9.99554 8.88421 10.4302 9.08825C10.4698 9.10681 10.5162 9.09932 10.5474 9.06877L15.6021 4.1196C15.6413 4.08125 15.704 4.08158 15.7428 4.12035L20.0023 8.37991C20.0417 8.41925 20.0413 8.48314 20.0016 8.52207Z" stroke="#373F4E" stroke-width="1.5" stroke-linecap="round"/>
</g>
</g>
</svg>
