<svg width="22" height="22" viewBox="0 0 22 22" fill="none" xmlns="http://www.w3.org/2000/svg">
<g id="heroicons-outline/pinned" clip-path="url(#clip0_660_421)">
<path id="Vector" d="M5.60578 0.96003C5.66557 0.90003 5.73655 0.852439 5.81471 0.819928C5.89287 0.787418 5.97668 0.770634 6.06136 0.770515L15.0819 0.770637C15.2527 0.77067 15.4166 0.838542 15.5374 0.959352C15.6582 1.08016 15.726 1.244 15.7261 1.41484C15.7261 2.28956 15.2851 2.92737 14.8924 3.32008C14.7311 3.48135 14.5708 3.60891 14.4377 3.70367L14.4378 9.41483C14.8156 9.64293 15.1732 9.90298 15.5066 10.1921C16.1882 10.7898 17.0146 11.7584 17.0146 13.0121C17.0146 13.183 16.9467 13.3468 16.826 13.4676C16.7051 13.5884 16.5413 13.6563 16.3704 13.6563L11.216 13.6572L11.2161 19.4558C11.2161 19.8112 10.9273 21.3884 10.5719 21.3884C10.2166 21.3884 9.92679 19.8102 9.9277 19.4558L9.92762 13.6571L4.77317 13.6562C4.60232 13.6561 4.43849 13.5882 4.31768 13.4674C4.19687 13.3466 4.12899 13.1828 4.12897 13.012C4.12895 11.7582 4.95445 10.7887 5.6369 10.1919C5.97033 9.90283 6.32789 9.64282 6.70569 9.41472L6.70651 3.70447C6.54467 3.58856 6.39209 3.46028 6.25001 3.32087C5.85821 2.92906 5.41719 2.29123 5.41718 1.4147C5.41742 1.24413 5.48523 1.08063 5.60578 0.96003ZM7.63953 2.77145L7.64135 2.77328C7.7478 2.82713 7.83728 2.90943 7.8997 3.0111C7.96207 3.11283 7.99509 3.22979 7.99489 3.34914L7.99408 9.79014C7.99382 9.90958 7.96037 10.0266 7.89746 10.1281C7.83455 10.2296 7.74466 10.3117 7.63782 10.3651L7.636 10.3669L7.61959 10.376C7.50714 10.4371 7.39655 10.5015 7.28794 10.5692C7.00549 10.7452 6.73711 10.943 6.48521 11.1605C6.07519 11.5195 5.73078 11.9295 5.55129 12.3678L15.5914 12.367C15.41 11.9287 15.0665 11.5196 14.6565 11.1606C14.3073 10.8589 13.9267 10.5956 13.5212 10.3752L13.5057 10.367C13.3985 10.3137 13.3075 10.2306 13.2444 10.1289C13.1813 10.0272 13.1478 9.90994 13.1476 9.79022L13.1484 3.34739C13.1481 3.22289 13.1838 3.10098 13.2512 2.99638C13.3186 2.89176 13.4149 2.80889 13.5284 2.75787L13.6359 2.69044C13.7307 2.62666 13.8564 2.5319 13.9803 2.40798C14.086 2.30472 14.178 2.1884 14.2564 2.05902L6.88599 2.05983C6.96495 2.18982 7.05698 2.30615 7.16207 2.4088C7.3043 2.5497 7.4642 2.67157 7.6377 2.77145L7.63953 2.77145Z" fill="#373F4E"/>
</g>
<defs>
<clipPath id="clip0_660_421">
<rect width="22" height="22" fill="white"/>
</clipPath>
</defs>
</svg>
