<svg width="25" height="25" viewBox="0 0 25 25" fill="none" xmlns="http://www.w3.org/2000/svg">
<g id="heroicons-outline/restore">
<path id="Restore" fill-rule="evenodd" clip-rule="evenodd" d="M7.95481 1.63842C8.23679 1.35812 8.62 1.2 9.02032 1.2H21.6508C22.0511 1.2 22.4343 1.35811 22.7163 1.63842C22.9981 1.91861 23.1558 2.29787 23.1558 2.69256V15.2479C23.1558 15.6426 22.9981 16.0219 22.7163 16.302C22.4343 16.5824 22.0511 16.7405 21.6508 16.7405H9.02032C8.62 16.7405 8.23679 16.5824 7.95481 16.302C7.67295 16.0219 7.51525 15.6426 7.51525 15.2479V2.69256C7.51525 2.29787 7.67295 1.91861 7.95481 1.63842ZM9.02032 0C8.30404 0 7.61639 0.282816 7.10881 0.787369C6.60112 1.29204 6.31525 1.97729 6.31525 2.69256V6.42038H2.70507C1.98879 6.42038 1.30114 6.7032 0.793564 7.20775C0.285872 7.71242 0 8.39767 0 9.11294V21.6683C0 22.3836 0.285873 23.0688 0.793564 23.5735C1.30114 24.078 1.98879 24.3609 2.70507 24.3609H15.3355C16.0518 24.3609 16.7395 24.078 17.247 23.5735C17.7547 23.0688 18.0406 22.3836 18.0406 21.6683V17.9405H21.6508C22.367 17.9405 23.0547 17.6577 23.5623 17.1531C24.07 16.6484 24.3558 15.9632 24.3558 15.2479V2.69256C24.3558 1.97729 24.07 1.29204 23.5623 0.787369C23.0547 0.282816 22.367 0 21.6508 0H9.02032ZM16.8406 17.9405H9.02032C8.30404 17.9405 7.61639 17.6577 7.10881 17.1531C6.60112 16.6484 6.31525 15.9632 6.31525 15.2479V7.62038H2.70507C2.30475 7.62038 1.92154 7.77849 1.63956 8.0588C1.3577 8.33899 1.2 8.71825 1.2 9.11294V21.6683C1.2 22.063 1.3577 22.4422 1.63956 22.7224C1.92154 23.0027 2.30475 23.1609 2.70507 23.1609H15.3355C15.7358 23.1609 16.119 23.0027 16.401 22.7224C16.6829 22.4422 16.8406 22.063 16.8406 21.6683V17.9405Z" fill="#373F4E"/>
</g>
</svg>
