<svg width="24" height="24" viewBox="0 0 24 24" fill="none" xmlns="http://www.w3.org/2000/svg">
<g id="heroicons-outline/riskresponsetype" clip-path="url(#clip0_999_47)">
<path id="Vector" d="M12.0008 1.17588C9.51675 3.52788 6.14475 4.97988 2.44875 4.97988C2.1008 4.97988 2.32875 4.97988 2.26875 4.97988C1.82475 6.34788 1.57275 7.79988 1.57275 9.32388C1.57275 15.7919 6.00075 21.2399 11.9888 22.7759C17.9768 21.2279 22.4048 15.7919 22.4048 9.32388C22.4048 7.43979 22.1648 6.34788 21.7088 4.97988C21.6488 4.97988 21.5888 4.97988 21.5288 4.97988C17.8328 4.97988 14.4728 3.52788 11.9768 1.17588H12.0008Z" stroke="#373F4E" stroke-width="1.24" stroke-linecap="round" stroke-linejoin="round"/>
<path id="Vector_2" d="M8.93986 18.0481L6.08386 15.1921L8.93986 12.3361" stroke="#373F4E" stroke-width="1.24" stroke-linecap="round" stroke-linejoin="round"/>
<path id="Vector_3" d="M6.9967 15.1921H14.3287" stroke="#373F4E" stroke-width="1.24" stroke-linecap="round" stroke-linejoin="round"/>
<path id="Vector_4" d="M14.9655 6.84005L17.8215 9.69605L14.9655 12.552" stroke="#373F4E" stroke-width="1.24" stroke-linecap="round" stroke-linejoin="round"/>
<path id="Vector_5" d="M16.8949 9.69603H9.57483" stroke="#373F4E" stroke-width="1.24" stroke-linecap="round" stroke-linejoin="round"/>
</g>
<defs>
<clipPath id="clip0_999_47">
<rect width="24" height="24" fill="white"/>
</clipPath>
</defs>
</svg>
