<svg width="24" height="24" viewBox="0 0 24 24" fill="none" xmlns="http://www.w3.org/2000/svg">
<g id="heroicons-outline/riskstatuses" clip-path="url(#clip0_999_45)">
<path id="Vector" d="M12.6482 2.808C12.3842 1.872 11.5322 1.2 10.5122 1.2H7.56017C6.54017 1.2 5.68817 1.884 5.42417 2.808C5.36417 3 5.34017 3.204 5.34017 3.408C5.34017 3.816 5.67617 4.152 6.08417 4.152H11.9882C12.3962 4.152 12.7322 3.816 12.7322 3.408C12.7322 3.204 12.7082 3 12.6482 2.808ZM12.6482 2.808C13.2842 2.856 13.9202 2.916 14.5442 2.988C15.6242 3.108 16.4162 4.044 16.4162 5.136V10.008M15.0842 20.208C14.8202 20.328 14.5202 20.388 14.2082 20.388H3.86417C2.64017 20.388 1.64417 19.392 1.64417 18.168V5.136C1.64417 4.044 2.43617 3.108 3.51617 2.988C4.14017 2.916 4.77617 2.856 5.41217 2.808M15.0842 20.208C14.9762 20.28 15.2042 20.16 15.0842 20.208Z" stroke="#373F4E" stroke-width="1.24" stroke-linecap="round" stroke-linejoin="round"/>
<path id="Vector_2" d="M14.0512 8.97598H10.9552C10.0672 8.97598 9.33521 9.69598 9.33521 10.596V13.692C9.33521 14.124 9.5032 14.532 9.8032 14.832L16.6792 21.708C17.1832 22.212 17.9512 22.332 18.5512 21.948C20.0392 20.976 21.3232 19.692 22.2952 18.204C22.6792 17.616 22.5592 16.836 22.0552 16.332L15.1792 9.45598C14.8792 9.15598 14.4712 8.98797 14.0392 8.98797L14.0512 8.97598Z" stroke="#373F4E" stroke-width="1.24" stroke-linecap="round" stroke-linejoin="round"/>
<path id="Vector_3" d="M11.4841 11.448C11.6696 11.448 11.8201 11.2975 11.8201 11.112C11.8201 10.9264 11.6696 10.776 11.4841 10.776C11.2985 10.776 11.1481 10.9264 11.1481 11.112C11.1481 11.2975 11.2985 11.448 11.4841 11.448Z" fill="#373F4E" stroke="#373F4E" stroke-width="1.24" stroke-linecap="round" stroke-linejoin="round"/>
</g>
<defs>
<clipPath id="clip0_999_45">
<rect width="24" height="24" fill="white"/>
</clipPath>
</defs>
</svg>
