<svg width="24" height="24" viewBox="0 0 24 24" fill="none" xmlns="http://www.w3.org/2000/svg">
<g id="heroicons-outline/riskcategories" clip-path="url(#clip0_919_43)">
<path id="RiskCategories" d="M6.50857 1.09555C7.35236 -0.365075 9.46184 -0.365293 10.3054 1.09555V1.09653L14.784 8.85922H21.6756C22.6681 8.85922 23.4733 9.66456 23.4734 10.6571V22.201C23.4734 23.1936 22.6681 23.9989 21.6756 23.9989H11.6707C10.6784 23.9986 9.87283 23.1934 9.87283 22.201V13.4168H3.19509C1.50889 13.4168 0.453222 11.5911 1.29665 10.1297L6.50759 1.09653L6.50857 1.09555ZM11.6707 10.1463C11.3891 10.1466 11.16 10.3754 11.1599 10.6571V22.201C11.1599 22.4827 11.389 22.7124 11.6707 22.7127H21.6756C21.9575 22.7127 22.1863 22.4829 22.1863 22.201V10.6571C22.1862 10.3752 21.9574 10.1463 21.6756 10.1463H11.6707ZM13.6033 18.8641C13.9585 18.8643 14.2468 19.1524 14.2468 19.5077V19.5155C14.2468 19.8707 13.9585 20.1589 13.6033 20.159H13.5945C13.2395 20.1586 12.951 19.8706 12.951 19.5155V19.5077C12.951 19.1526 13.2395 18.8645 13.5945 18.8641H13.6033ZM19.8816 18.8778C20.1746 18.9379 20.3953 19.1969 20.3953 19.5077C20.3953 19.8185 20.1746 20.0774 19.8816 20.1375L19.7517 20.1512H15.9041C15.5489 20.151 15.2605 19.8629 15.2605 19.5077C15.2605 19.1525 15.5489 18.8643 15.9041 18.8641H19.7517L19.8816 18.8778ZM13.6033 15.786C13.9585 15.7861 14.2468 16.0743 14.2468 16.4295V16.4373C14.2468 16.7926 13.9585 17.0808 13.6033 17.0809H13.5945C13.2395 17.0805 12.951 16.7924 12.951 16.4373V16.4295C12.951 16.0744 13.2395 15.7864 13.5945 15.786H13.6033ZM19.7517 15.786C20.107 15.786 20.3953 16.0742 20.3953 16.4295C20.3951 16.7847 20.107 17.0731 19.7517 17.0731H15.9041C15.549 17.0729 15.2607 16.7846 15.2605 16.4295C15.2605 16.0743 15.5489 15.7862 15.9041 15.786H19.7517ZM13.6033 12.7079C13.9584 12.708 14.2466 12.9954 14.2468 13.3504V13.3592C14.2467 13.7144 13.9584 14.0026 13.6033 14.0028H13.5945C13.2396 14.0024 12.9511 13.7142 12.951 13.3592V13.3504C12.9512 12.9955 13.2396 12.7083 13.5945 12.7079H13.6033ZM19.7517 12.7079C20.1069 12.7079 20.3951 12.9953 20.3953 13.3504C20.3953 13.7058 20.1071 13.994 19.7517 13.994H15.9041C15.5489 13.9938 15.2605 13.7056 15.2605 13.3504C15.2607 12.9954 15.5491 12.7081 15.9041 12.7079H19.7517ZM9.27029 1.69321C8.88652 1.02881 7.92646 1.02875 7.54275 1.69321L2.33181 10.7264V10.7274C1.94854 11.3918 2.42826 12.2215 3.19509 12.2215H9.87283V10.6571C9.8729 9.66474 10.6784 8.85952 11.6707 8.85922H13.4041L9.27029 1.69321ZM8.41189 9.5643C8.74157 9.56463 9.00954 9.8322 9.00954 10.162V10.1678C9.00927 10.4973 8.7414 10.7642 8.41189 10.7645H8.40701C8.07721 10.7645 7.80963 10.4975 7.80935 10.1678V10.162C7.80935 9.832 8.07704 9.5643 8.40701 9.5643H8.41189ZM8.40701 4.7811C8.73665 4.78147 9.00368 5.04902 9.00368 5.37875V8.03598C9.00357 8.36562 8.73658 8.63326 8.40701 8.63364C8.07711 8.63364 7.80946 8.36585 7.80935 8.03598V5.37875C7.80935 5.04879 8.07704 4.7811 8.40701 4.7811Z" fill="#373F4E"/>
</g>
<defs>
<clipPath id="clip0_919_43">
<rect width="24" height="24" fill="white"/>
</clipPath>
</defs>
</svg>
