<svg width="24" height="24" viewBox="0 0 24 24" fill="none" xmlns="http://www.w3.org/2000/svg">
<g id="heroicons-outline/undock" clip-path="url(#clip0_219_1590)">
<path id="Union" fill-rule="evenodd" clip-rule="evenodd" d="M4.09094 6.0999C4.4022 5.77712 4.8196 5.6 5.25002 5.6H18.75C19.1804 5.6 19.5979 5.77711 19.9091 6.0999C20.2211 6.42343 20.4 6.86673 20.4 7.33333V16.6667C20.4 17.1333 20.2211 17.5766 19.9091 17.9001C19.5979 18.2229 19.1804 18.4 18.75 18.4H5.25002C4.8196 18.4 4.4022 18.2229 4.09094 17.9001C3.77897 17.5766 3.60002 17.1333 3.60002 16.6667V12.4208H20.3751V11.2208H3.60002V7.33333C3.60002 6.86673 3.77897 6.42343 4.09094 6.0999ZM5.25002 4.4C4.48697 4.4 3.75978 4.71455 3.22713 5.26694C2.69519 5.81858 2.40002 6.56226 2.40002 7.33333V16.6667C2.40002 17.4377 2.69519 18.1814 3.22713 18.7331C3.75978 19.2854 4.48697 19.6 5.25002 19.6H18.75C19.5131 19.6 20.2403 19.2854 20.7729 18.7331C21.3049 18.1814 21.6 17.4377 21.6 16.6667V7.33333C21.6 6.56226 21.3049 5.81858 20.7729 5.26694C20.2403 4.71455 19.5131 4.4 18.75 4.4H5.25002Z" fill="#373F4E"/>
</g>
<defs>
<clipPath id="clip0_219_1590">
<rect width="24" height="24" fill="white"/>
</clipPath>
</defs>
</svg>
